{"title":"No.Strings.Attached.[2011].DvdRip.XviD-KnÃƒÂ£","uid":6642526,"size":1566064640,"categoryP":"video","categoryS":"movies","magnet":"?xt=urn:btih:b6bbcadf6287ebbe4d51524e5e7dcec3cd6ae84b&amp;dn=No.Strings.Attached.%5B2011%5D.DvdRip.XviD-Kn%C3%83%C2%A3&amp;tr=udp%3A%2F%2Ftracker.openbittorrent.com%3A80&amp;tr=udp%3A%2F%2Fopen.demonii.com%3A1337&amp;tr=udp%3A%2F%2Ftracker.coppersurfer.tk%3A6969&amp;tr=udp%3A%2F%2Fexodus.desync.com%3A6969","seeders":1,"leechers":0,"uploader":"Jon.Pson","files":1,"time":1314804392,"description":"guy and girl try to keep their relationship strictly physical, but it's not long before they learn that they want something more. \n\n\nGeneral\nComplete name                    : C:\\Mina Rips\\No.Strings.Attached\\No.Strings.avi\nFormat                           : AVI\nFormat/Info                      : Audio Video Interleave\nFile size                        : 1.46 GiB\nDuration                         : 1h 47mn\nOverall bit rate                 : 1 933 Kbps\nWriting application              : VirtualDubMod 1.5.4.1 (build 2178/release)\nWriting library                  : VirtualDubMod build 2178/release\n\nVideo\nID                               : 0\nFormat                           : MPEG-4 Visual\nFormat profile                   : Advanced Simple@L5\nFormat settings, BVOP            : No\nFormat settings, QPel            : No\nFormat settings, GMC             : No warppoints\nFormat settings, Matrix          : Custom\nCodec ID                         : XVID\nCodec ID/Hint                    : XviD\nDuration                         : 1h 47mn\nBit rate                         : 1 479 Kbps\nWidth                            : 720 pixels\nHeight                           : 304 pixels\nDisplay aspect ratio             : 2.35:1\nFrame rate                       : 23.976 fps\nColor space                      : YUV\nChroma subsampling               : 4:2:0\nBit depth                        : 8 bits\nScan type                        : Progressive\nCompression mode                 : Lossy\nBits/(Pixel*Frame)               : 0.282\nStream size                      : 1.12 GiB (76%)\nWriting library                  : XviD 1.2.1 (UTC 2008-12-04)\n\nAudio\nID                               : 1\nFormat                           : AC-3\nFormat/Info                      : Audio Coding 3\nMode extension                   : CM (complete main)\nCodec ID                         : 2000\nDuration                         : 1h 47mn\nBit rate mode                    : Constant\nBit rate                         : 448 Kbps\nChannel(s)                       : 6 channels\nChannel positions                : Front: L C R, Side: L R, LFE\nSampling rate                    : 48.0 KHz\nBit depth                        : 16 bits\nCompression mode                 : Lossy\nStream size                      : 346 MiB (23%)\nAlignment                        : Split accross interleaves\nInterleave, duration             : 96 ms (2.30 video frames)\nInterleave, preload duration     : 96 ms\nLanguage                         : English\n\n","torrent":{"xt":"urn:btih:b6bbcadf6287ebbe4d51524e5e7dcec3cd6ae84b","amp;dn":"No.Strings.Attached.%5B2011%5D.DvdRip.XviD-Kn%C3%83%C2%A3","amp;tr":["udp%3A%2F%2Ftracker.openbittorrent.com%3A80","udp%3A%2F%2Fopen.demonii.com%3A1337","udp%3A%2F%2Ftracker.coppersurfer.tk%3A6969","udp%3A%2F%2Fexodus.desync.com%3A6969"],"infoHash":"b6bbcadf6287ebbe4d51524e5e7dcec3cd6ae84b","infoHashBuffer":{"type":"Buffer","data":[182,187,202,223,98,135,235,190,77,81,82,78,94,125,206,195,205,106,232,75]},"announce":[],"urlList":[]}}